<svg width="90" height="90" viewBox="0 0 90 90" fill="none" xmlns="http://www.w3.org/2000/svg">
<path d="M67.6406 67.8013L56.9531 62.6553L53.4375 60.9863V59.8737C57.375 57.2312 61.7344 52.0852 65.3906 42.4192C67.2891 42.3497 68.9063 41.5152 69.8906 40.1244C71.0859 38.4554 71.2969 36.2302 70.4531 34.4221C70.1719 33.7963 69.75 33.3095 69.3281 32.8923H71.0156V26.2164L67.9922 25.382V24.9647C67.9922 16.2722 63 8.41423 55.125 4.58954C54.7031 3.05967 53.3672 1.94703 51.6797 1.94703H46.4062V0.695312H43.5938V1.87749H38.3203C36.6328 1.87749 35.2969 2.99013 34.875 4.52C27 8.34469 22.0078 16.2722 22.0078 24.8952V25.3124L18.9844 26.2164V32.8923H20.6719C20.1797 33.3095 19.8281 33.8658 19.5469 34.4221C18.7031 36.2302 18.9141 38.4554 20.1094 40.1244C21.1641 41.5847 22.7813 42.3497 24.6094 42.4192C28.2656 52.0852 32.6953 57.1617 36.5625 59.8737V60.9863L33.9609 62.2381L22.3594 67.8013C19.4766 69.192 17.5781 72.1127 17.5781 75.3116V87.481H72.4219V75.3116C72.4219 72.1127 70.5234 69.192 67.6406 67.8013ZM50.625 62.0294C50.625 62.2381 50.5547 62.5162 50.5547 62.7944C50.5547 62.9335 50.4844 63.1421 50.4844 63.2812C50.4141 63.4202 50.4141 63.5593 50.3437 63.6984C50.3437 63.6984 50.3438 63.7679 50.2734 63.7679C50.2031 63.907 50.2031 63.9766 50.1328 64.1156C50.1328 64.1852 50.0625 64.2547 49.9922 64.3243C49.9922 64.3938 49.9219 64.4633 49.8516 64.5329C49.7813 64.672 49.7109 64.811 49.6406 64.9501C49.0078 65.8541 48.1641 66.5495 47.1797 66.9668C47.1797 66.9668 47.1797 66.9668 47.1094 66.9668C46.9687 67.0363 46.8281 67.1059 46.6875 67.1059H46.6172C46.4766 67.1754 46.3359 67.1754 46.1953 67.1754C46.125 67.1754 46.125 67.1754 46.0547 67.1754C45.9141 67.1754 45.7734 67.2449 45.6328 67.2449C45.5625 67.2449 45.5625 67.2449 45.4922 67.2449C45.2812 67.2449 45.1406 67.2449 44.9297 67.2449C41.8359 67.2449 39.3047 64.7415 39.3047 61.6817V61.2645C41.625 62.3076 43.5938 62.5162 44.9297 62.5162C46.2656 62.5162 48.2344 62.3076 50.5547 61.2645V61.8904C50.625 61.9599 50.625 61.9599 50.625 62.0294ZM67.6406 38.525C67.3594 38.8727 67.0078 39.2899 66.375 39.4985C66.7266 37.9687 67.0078 36.2997 67.1484 34.7698C67.5 34.9785 67.7812 35.2566 67.9219 35.6738C68.3437 36.5083 68.2734 37.6905 67.6406 38.525ZM21.7969 28.3026L24.8203 27.4681V24.9647C24.8203 17.8717 28.6875 11.3349 34.7344 7.78838V16.1332H37.5469V5.42402C37.5469 5.00678 37.8984 4.65908 38.3203 4.65908H43.5938V20.6532H46.4062V4.65908H51.6797C52.1016 4.65908 52.4531 5.00678 52.4531 5.42402V16.0636H55.2656V7.71884C61.3828 11.2654 65.1797 17.8021 65.1797 24.8952V27.3986L68.2031 28.2331V30.0411H21.7969V28.3026ZM22.3594 38.525C21.7266 37.6905 21.6562 36.5083 22.0781 35.6738C22.2891 35.3261 22.5 34.9785 22.8516 34.7698C22.9922 36.5083 23.3438 38.0382 23.6953 39.4985C23.0625 39.2899 22.6406 38.8727 22.3594 38.525ZM26.9297 40.6112C26.2969 38.3164 25.6641 35.8825 25.5234 32.8923H64.4766C64.4062 35.1175 63.9141 38.4554 63.1406 40.5416C56.8125 57.9961 48.375 59.8737 45 59.8737C41.6953 59.9432 33.2578 58.0657 26.9297 40.6112ZM69.6094 84.6994H63.2812V82.7523H60.4688V84.6994H29.5312V82.7523H26.7188V84.6994H20.3906V75.3116C20.3906 73.1558 21.6562 71.2087 23.5547 70.3047L36.8438 63.9766C36.8438 64.0461 36.9141 64.1156 36.9141 64.1852C36.9141 64.2547 36.9844 64.3938 36.9844 64.4633C37.0547 64.6024 37.125 64.811 37.1953 64.9501C37.1953 65.0197 37.2656 65.0892 37.2656 65.1587C37.3359 65.3674 37.4766 65.576 37.5469 65.7151C37.5469 65.7151 37.5469 65.7846 37.6172 65.7846C37.7578 65.9932 37.8984 66.2018 38.0391 66.4105C38.1094 66.48 38.1094 66.5495 38.1797 66.6191C38.25 66.7582 38.3906 66.8972 38.5312 67.0363C38.6016 67.1059 38.6719 67.1754 38.7422 67.2449C38.8125 67.384 38.9531 67.4536 39.0937 67.5926C39.1641 67.6622 39.2344 67.7317 39.3047 67.8013C39.4453 67.9403 39.5156 68.0099 39.6563 68.149C39.7266 68.2185 39.7969 68.288 39.8672 68.3576C40.0078 68.4967 40.1484 68.5662 40.2891 68.7053C40.3594 68.7748 40.4297 68.7748 40.4297 68.8443C40.6406 68.9834 40.8516 69.1225 41.0625 69.2616C41.1328 69.2616 41.1328 69.3311 41.2031 69.3311C41.4141 69.4007 41.5547 69.5397 41.7656 69.6093C41.8359 69.6788 41.9062 69.6788 42.0469 69.6788C42.1875 69.7484 42.3281 69.8179 42.5391 69.8179C42.6094 69.8179 42.75 69.8874 42.8203 69.8874C42.9609 69.957 43.1719 69.957 43.3125 70.0265C43.3828 70.0265 43.5234 70.0961 43.5938 70.0961C43.7344 70.0961 43.9453 70.1656 44.1562 70.1656C44.2266 70.1656 44.2969 70.1656 44.4375 70.1656C44.7188 70.1656 45 70.2351 45.2109 70.2351C45.4922 70.2351 45.7031 70.2351 45.9844 70.2351C46.125 70.2351 46.2656 70.2351 46.3359 70.1656C46.4766 70.1656 46.5469 70.1656 46.6875 70.0961C46.8281 70.0961 47.0391 70.0265 47.1797 69.957C47.25 69.957 47.3203 69.957 47.3906 69.8874C47.6016 69.8179 47.7422 69.7484 47.9531 69.7484C48.0234 69.7484 48.0234 69.7484 48.0938 69.7484C48.3047 69.6788 48.5156 69.6093 48.6562 69.5397H48.7266C48.9375 69.4702 49.1484 69.3311 49.2891 69.2616C49.5 69.1225 49.6406 69.053 49.8516 68.9139C50.0625 68.7748 50.2031 68.7053 50.3437 68.5662C50.3437 68.5662 50.4141 68.5662 50.4141 68.4966C50.5547 68.3576 50.6953 68.2185 50.8359 68.149L50.9063 68.0794C51.0469 67.9403 51.1172 67.8708 51.2578 67.7317C51.3281 67.6622 51.3984 67.5926 51.3984 67.5231C51.4687 67.4536 51.5391 67.3145 51.6797 67.2449C51.75 67.1059 51.8906 67.0363 51.9609 66.8972C52.0313 66.8277 52.0312 66.7582 52.1016 66.7582C52.6641 65.9932 53.0859 65.0892 53.2969 64.1156L66.5156 70.4438C68.4844 71.3478 69.6797 73.3644 69.6797 75.4506V84.6994H69.6094Z" fill="#E05100"/>
<path d="M60.1172 25.0342H29.8828V27.8158H60.1172V25.0342Z" fill="#E05100"/>
</svg>
