<svg width="103" height="90" viewBox="0 0 103 90" fill="none" xmlns="http://www.w3.org/2000/svg">
<path d="M18.8833 17.1667C16.6345 17.1667 16.6173 20.6344 18.8833 20.6001H94.4167C95.3986 20.6001 96.1333 21.3348 96.1333 22.3167V66.9501C96.1333 69.2161 99.5667 69.2161 99.5667 66.9501V22.3167C99.5667 19.4945 97.2389 17.1667 94.4167 17.1667H18.8833ZM12.0167 24.0334C9.77127 24.0334 9.77127 27.4667 12.0167 27.4667H87.55C88.5319 27.4667 89.2667 28.2015 89.2667 29.1834V73.8168C89.2667 76.0999 92.7343 76.0828 92.7 73.8168V29.1834C92.7 26.3612 90.3722 24.0334 87.55 24.0334H12.0167ZM5.15 30.9001C2.3278 30.9001 0 33.2279 0 36.0501V77.2501C0 80.0723 2.3278 82.4001 5.15 82.4001H80.6833C83.5055 82.4001 85.8333 80.0723 85.8333 77.2501V36.0501C85.8333 33.2279 83.5055 30.9001 80.6833 30.9001H5.15ZM5.15 34.3334H80.6833C81.6653 34.3334 82.4 35.0681 82.4 36.0501V77.2501C82.4 78.232 81.6653 78.9668 80.6833 78.9668H5.15C4.16807 78.9668 3.43333 78.232 3.43333 77.2501V36.0501C3.43333 35.0681 4.16807 34.3334 5.15 34.3334ZM8.58333 37.7668C7.63573 37.7668 6.86667 38.5358 6.86667 39.4834V46.3501C6.86667 48.6573 10.3 48.6024 10.3 46.3501V41.2001H15.45C17.7572 41.2001 17.7023 37.7668 15.45 37.7668H8.58333ZM42.9167 37.7668C32.5068 37.7668 24.0333 46.2402 24.0333 56.6501C24.0333 67.06 32.5068 75.5334 42.9167 75.5334C53.3265 75.5334 61.8 67.06 61.8 56.6501C61.8 46.2402 53.3265 37.7668 42.9167 37.7668ZM70.3833 37.7668C68.1311 37.7668 68.0761 41.2001 70.3833 41.2001H75.5333V46.3501C75.5333 48.6024 78.9667 48.6573 78.9667 46.3501V39.4834C78.9667 38.5358 78.1976 37.7668 77.25 37.7668H70.3833ZM42.9167 41.2001C51.4657 41.2001 58.3667 48.1011 58.3667 56.6501C58.3667 65.1991 51.4657 72.1001 42.9167 72.1001C34.3677 72.1001 27.4667 65.1991 27.4667 56.6501C27.4667 48.1011 34.3677 41.2001 42.9167 41.2001ZM42.9167 44.6334C41.9656 44.6334 41.2 45.399 41.2 46.3501V48.3895C39.2155 49.1105 37.7667 50.9988 37.7667 53.2168C37.7667 56.0321 40.1013 58.3668 42.9167 58.3668C43.878 58.3668 44.6333 59.0946 44.6333 60.0834C44.6333 61.0722 43.878 61.8001 42.9167 61.8001H39.4833C38.3229 61.7829 37.7667 62.6516 37.7667 63.5168C37.7667 64.382 38.3229 65.2506 39.4833 65.2334H41.2V66.9501C41.2 67.9011 41.9656 68.6668 42.9167 68.6668C43.8677 68.6668 44.6333 67.9011 44.6333 66.9501V64.9107C46.6178 64.1897 48.0667 62.3014 48.0667 60.0834C48.0667 57.2681 45.732 54.9334 42.9167 54.9334C41.9553 54.9334 41.2 54.2056 41.2 53.2168C41.2 52.228 41.9553 51.5001 42.9167 51.5001H46.35C47.5105 51.5173 48.0667 50.6486 48.0667 49.7834C48.0667 48.9182 47.5105 48.0496 46.35 48.0668H44.6333V46.3501C44.6333 45.399 43.8677 44.6334 42.9167 44.6334ZM8.58333 65.2403C7.725 65.2334 6.86667 65.7965 6.86667 66.9501V73.8168C6.86667 74.7644 7.63573 75.5334 8.58333 75.5334H15.45C17.7023 75.5334 17.7572 72.1001 15.45 72.1001H10.3V66.9501C10.3 65.824 9.44167 65.2472 8.58333 65.2403ZM77.25 65.2403C76.3917 65.2472 75.5333 65.824 75.5333 66.9501V72.1001H70.3833C68.0761 72.1001 68.1311 75.5334 70.3833 75.5334H77.25C78.1976 75.5334 78.9667 74.7644 78.9667 73.8168V66.9501C78.9667 65.7965 78.1083 65.2334 77.25 65.2403Z" fill="#E05100"/>
</svg>
