<svg width="91" height="88" viewBox="0 0 91 88" fill="none" xmlns="http://www.w3.org/2000/svg">
<path d="M31.0494 45.1728L29.161 58.7603C29.0915 59.2612 29.1597 59.7716 29.3582 60.2369C29.5567 60.7022 29.8782 61.1049 30.2882 61.4021C30.6982 61.6993 31.1815 61.8798 31.6863 61.9243C32.1911 61.9688 32.6985 61.8757 33.1544 61.6548L45.4805 55.6647L57.847 61.6562C58.3031 61.8766 58.8106 61.9693 59.3154 61.9244C59.8201 61.8795 60.3032 61.6986 60.713 61.4012C61.1228 61.1037 61.444 60.7008 61.6424 60.2355C61.8407 59.7701 61.9087 59.2598 61.8391 58.7589L59.9396 45.2102L69.4691 35.3266C69.8205 34.9621 70.0661 34.5093 70.1797 34.0164C70.2933 33.5236 70.2706 33.0092 70.1141 32.5282C69.9575 32.0471 69.673 31.6176 69.2909 31.2853C68.9088 30.9531 68.4435 30.7306 67.9446 30.6417L54.4436 28.2584L47.9675 16.1592C47.7289 15.713 47.3733 15.3399 46.9387 15.0797C46.5041 14.8196 46.0068 14.6821 45.5 14.6821C44.9932 14.6821 44.4959 14.8196 44.0613 15.0797C43.6267 15.3399 43.2711 15.713 43.0325 16.1592L36.5883 28.2349L23.0554 30.6417C22.5565 30.7306 22.0912 30.9531 21.7091 31.2853C21.327 31.6176 21.0425 32.0471 20.886 32.5282C20.7294 33.0092 20.7067 33.5236 20.8203 34.0164C20.9339 34.5093 21.1795 34.9621 21.5309 35.3266L31.0494 45.1728ZM37.0909 31.0284C37.5073 30.9545 37.9014 30.7869 38.2433 30.5384C38.5852 30.2899 38.8658 29.967 39.064 29.5942L45.4584 17.4935L46.7136 16.8266L45.4598 17.4945L51.936 29.5937C52.1345 29.967 52.4156 30.2902 52.7581 30.5387C53.1006 30.7872 53.4954 30.9546 53.9124 31.0279L67.4202 33.3585L57.8919 43.2423C57.5969 43.5459 57.3753 43.9129 57.2441 44.3152C57.113 44.7174 57.0757 45.1443 57.1352 45.5631L59.0876 59.1021L46.7225 53.112C46.3421 52.926 45.9242 52.8294 45.5006 52.8294C45.077 52.8294 44.659 52.926 44.2786 53.112L31.9776 59.1492L33.8674 45.559C33.9259 45.1408 33.8881 44.7149 33.757 44.3134C33.6258 43.912 33.4048 43.5457 33.1105 43.2423L23.5555 33.4348L37.0909 31.0284Z" fill="#E05100"/>
<path d="M80.0516 46.5375C80.7089 43.844 81.043 41.082 81.0469 38.3097C81.0469 28.9019 77.3018 19.8795 70.6354 13.2272C63.9691 6.57487 54.9276 2.83765 45.5 2.83765C36.0724 2.83765 27.0309 6.57487 20.3646 13.2272C13.6982 19.8795 9.95313 28.9019 9.95313 38.3097C9.9568 41.0819 10.2913 43.8437 10.9494 46.537C8.19926 48.9632 6.39397 52.279 5.85084 55.9017C5.30772 59.5245 6.0615 63.2223 7.97972 66.3455C9.89794 69.4686 12.8579 71.8171 16.3393 72.9784C19.8208 74.1396 23.601 74.0393 27.0156 72.6949V86.5517C27.0157 86.7578 27.0606 86.9613 27.1475 87.1482C27.2343 87.3351 27.3608 87.5009 27.5184 87.6341C27.6759 87.7673 27.8606 87.8646 28.0596 87.9194C28.2586 87.9741 28.4672 87.985 28.6708 87.9512L45.5 85.1523L62.3292 87.9512C62.4063 87.9639 62.4843 87.9704 62.5625 87.9706C62.9396 87.9706 63.3013 87.8211 63.5679 87.555C63.8346 87.289 63.9844 86.9281 63.9844 86.5517V72.6949C67.3986 74.0362 71.1771 74.1345 74.6567 72.9725C78.1362 71.8106 81.0944 69.4626 83.012 66.3409C84.9295 63.2192 85.6838 59.5232 85.1424 55.9017C84.601 52.2803 82.7986 48.9649 80.0516 46.5375ZM45.5 5.67541C54.1705 5.68503 62.483 9.12636 68.614 15.2444C74.7449 21.3624 78.1935 29.6575 78.2031 38.3097C78.2057 41.1349 77.8345 43.948 77.0992 46.6762C75.1455 53.9869 70.7155 60.3972 64.5619 64.8177C63.6883 65.4452 62.7837 66.0285 61.8516 66.5655L61.8494 66.5671L61.8391 66.5737C61.1462 66.9825 60.4145 67.3497 59.7915 67.6545C55.34 69.8189 50.4532 70.9438 45.5014 70.944C40.5497 70.9443 35.6628 69.8198 31.211 67.6559C30.5861 67.3497 29.8544 66.9825 29.1493 66.5655C28.2146 66.0272 27.3075 65.4423 26.4317 64.813C20.279 60.3907 15.8507 53.9787 13.8994 46.6669C13.1646 43.9418 12.7939 41.1318 12.7969 38.3097C12.8065 29.6575 16.2551 21.3624 22.386 15.2444C28.517 9.12636 36.8296 5.68503 45.5 5.67541ZM21.3281 70.944C18.854 70.9444 16.4328 70.2289 14.3578 68.8842C12.2828 67.5396 10.643 65.6234 9.63692 63.3678C8.63084 61.1122 8.30167 58.614 8.68927 56.1755C9.07686 53.7371 10.1646 51.4631 11.8208 49.6289C11.8502 49.7164 11.8904 49.7991 11.9203 49.887C12.2216 50.7574 12.5492 51.618 12.9175 52.4597C12.9487 52.5315 12.9841 52.6016 13.016 52.6725C13.3895 53.5112 13.795 54.3337 14.2327 55.1402C14.2714 55.2112 14.3065 55.2847 14.3464 55.3558C14.7925 56.1645 15.2759 56.9527 15.7834 57.7246C15.8617 57.8441 15.9384 57.9642 16.0183 58.0827C16.5241 58.8325 17.058 59.5622 17.62 60.2716C17.7109 60.3865 17.803 60.4996 17.8954 60.6134C18.4746 61.3277 19.0774 62.0227 19.7103 62.6908C19.7784 62.7627 19.8495 62.8316 19.9182 62.9036C21.2568 64.2936 22.7068 65.5723 24.2538 66.7271C24.3455 66.7958 24.4349 66.8667 24.5275 66.9343C25.2636 67.4726 26.022 67.9811 26.8025 68.4597C26.8754 68.5048 26.9425 68.5583 27.0158 68.6029V69.6144C25.2477 70.4885 23.3013 70.9435 21.3281 70.944ZM29.8594 70.4616V70.154L29.9589 70.2038C34.3651 72.3568 39.1754 73.5624 44.0781 73.7423V82.5122L29.8594 84.8765V70.4616ZM61.1406 84.8765L46.9219 82.5122V73.7423C51.8251 73.5624 56.6357 72.3564 61.0421 70.2027C61.0739 70.1875 61.1074 70.1709 61.1406 70.1543V84.8765ZM69.6719 70.944C67.6987 70.9433 65.7523 70.4881 63.9844 69.6138V68.6029C64.0543 68.5603 64.1182 68.5095 64.1878 68.4664C64.9673 67.9851 65.7265 67.4761 66.4653 66.9394C66.5648 66.8669 66.6605 66.7907 66.759 66.717C67.5251 66.1445 68.2726 65.5492 68.9881 64.9183L69 64.9074C69.7185 64.2731 70.4046 63.605 71.0687 62.9164C71.1437 62.8387 71.221 62.7637 71.2954 62.6854C71.9253 62.0202 72.5249 61.3287 73.1012 60.6181C73.195 60.5025 73.2887 60.3875 73.3811 60.2708C73.9438 59.5594 74.4789 58.8282 74.9864 58.077C75.0623 57.9645 75.1351 57.85 75.2098 57.7365C75.7228 56.9561 76.2111 56.1615 76.6615 55.3431C76.692 55.2881 76.7191 55.2313 76.7493 55.176C77.2024 54.3423 77.622 53.491 78.008 52.622C78.0292 52.5742 78.0528 52.5278 78.0739 52.4801C78.4507 51.62 78.7858 50.7414 79.0925 49.8518C79.1185 49.7763 79.1535 49.7045 79.179 49.6287C80.8351 51.4629 81.9229 53.7369 82.3106 56.1753C82.6982 58.6138 82.369 61.1121 81.363 63.3677C80.357 65.6233 78.7171 67.5394 76.6422 68.8841C74.5672 70.2288 72.146 70.9443 69.6719 70.944Z" fill="#E05100"/>
</svg>
