<svg width="22" height="22" viewBox="0 0 22 22" fill="none" xmlns="http://www.w3.org/2000/svg">
<path fill-rule="evenodd" clip-rule="evenodd" d="M22 11V20.5333C22 21.2667 21.2667 22 20.5333 22H2.2C0.733333 22 0 21.2667 0 20.5333V11L11 16.1333L22 11Z" fill="white"/>
<path fill-rule="evenodd" clip-rule="evenodd" d="M2.2 10.2667H3.66667V6.6C3.66667 5.86667 4.4 5.13333 5.13333 5.13333H17.6C18.3333 5.13333 19.0667 5.86667 19.0667 6.6V10.2667H20.5333C21.2667 10.2667 22 9.53333 22 8.8V5.13333L11 0L0 5.13333V8.8C0 9.53333 0.733333 10.2667 2.2 10.2667Z" fill="white"/>
</svg>
