<svg width="30" height="29" viewBox="0 0 30 29" fill="none" xmlns="http://www.w3.org/2000/svg">
<path fill-rule="evenodd" clip-rule="evenodd" d="M3.4884 14.5C3.4884 8.01721 8.79851 2.7619 15.3488 2.7619C21.8992 2.7619 27.2093 8.01721 27.2093 14.5C27.2093 20.9827 21.8992 26.238 15.3488 26.238C13.0155 26.238 10.8436 25.5727 9.01114 24.4236C8.6701 24.2098 8.25221 24.1527 7.86536 24.2669L3.84794 25.4535L5.36056 21.9506C5.53934 21.5366 5.50296 21.0624 5.26308 20.6799C4.13819 18.8859 3.4884 16.7701 3.4884 14.5ZM15.3488 0C7.25725 0 0.697704 6.49186 0.697704 14.5C0.697704 17.0383 1.3579 19.4276 2.51812 21.5051L0.112286 27.0763C-0.100396 27.5689 -0.00612359 28.1386 0.354169 28.5383C0.714462 28.9381 1.2758 29.0955 1.79441 28.9422L8.07267 27.088C10.2174 28.3046 12.7028 28.9999 15.3488 28.9999C23.4405 28.9999 30 22.5081 30 14.5C30 6.49186 23.4405 0 15.3488 0ZM18.5477 17.5138L16.7139 18.7921C15.8551 18.3079 14.9055 17.6321 13.9531 16.6895C12.9629 15.7095 12.2289 14.6979 11.6876 13.7699L12.853 12.7909C13.3531 12.3708 13.49 11.6626 13.1819 11.0894L11.697 8.32751C11.497 7.95561 11.1365 7.69437 10.7179 7.61806C10.2993 7.54177 9.86834 7.65875 9.54763 7.93575L9.10739 8.31601C8.04869 9.23046 7.42256 10.7332 7.9415 12.2547C8.47951 13.832 9.62767 16.3145 11.9798 18.6424C14.5104 21.1469 17.0809 22.1332 18.5841 22.5162C19.7953 22.8247 20.9414 22.4112 21.749 21.7599L22.5744 21.0943C22.9274 20.8097 23.1179 20.3723 23.0847 19.9228C23.0513 19.4733 22.7985 19.0681 22.4072 18.8374L20.0654 17.4564C19.5924 17.1776 18.998 17.2 18.5477 17.5138Z" fill="white"/>
</svg>
