<svg width="31" height="31" viewBox="0 0 31 31" fill="none" xmlns="http://www.w3.org/2000/svg">
<path d="M15.5 0C6.93948 0 0 6.93948 0 15.5C0 24.0605 6.93948 31 15.5 31C24.0605 31 31 24.0605 31 15.5C31 6.93948 24.0605 0 15.5 0ZM21.461 17.4876C21.461 17.4876 22.8318 18.8406 23.1693 19.4686C23.179 19.4816 23.1838 19.4945 23.187 19.5009C23.3243 19.7318 23.3566 19.911 23.2888 20.0451C23.1757 20.2679 22.7882 20.3777 22.6558 20.3873H20.234C20.066 20.3873 19.7141 20.3437 19.2878 20.0499C18.9601 19.8206 18.6371 19.4444 18.3223 19.0779C17.8524 18.5322 17.4456 18.0607 17.0355 18.0607C16.9834 18.0606 16.9316 18.0688 16.8821 18.0849C16.5721 18.1851 16.1749 18.6274 16.1749 19.8061C16.1749 20.1742 15.8843 20.3857 15.6792 20.3857H14.57C14.1922 20.3857 12.224 20.2533 10.4803 18.4143C8.34578 16.162 6.42443 11.6444 6.40828 11.6024C6.28719 11.3102 6.53745 11.1535 6.81031 11.1535H9.25641C9.58255 11.1535 9.68911 11.3521 9.76338 11.5281C9.85057 11.7332 10.1703 12.5485 10.695 13.4656C11.5459 14.9607 12.0674 15.5678 12.4856 15.5678C12.564 15.5669 12.641 15.5469 12.71 15.5097C13.2557 15.2061 13.154 13.2606 13.1298 12.8569C13.1298 12.781 13.1282 11.9867 12.8489 11.6056C12.6486 11.3295 12.308 11.2246 12.1013 11.1858C12.1849 11.0704 12.2952 10.9768 12.4226 10.913C12.7972 10.7257 13.4721 10.6982 14.1421 10.6982H14.5151C15.2417 10.7079 15.429 10.7547 15.6921 10.8209C16.2249 10.9485 16.2362 11.2924 16.1894 12.4694C16.1749 12.8036 16.1604 13.1815 16.1604 13.6271C16.1604 13.724 16.1555 13.8273 16.1555 13.9371C16.1394 14.5361 16.12 15.2158 16.543 15.4952C16.5982 15.5298 16.662 15.5482 16.7271 15.5484C16.874 15.5484 17.3164 15.5484 18.5144 13.4931C18.8839 12.8315 19.205 12.144 19.4751 11.4361C19.4993 11.3941 19.5704 11.2649 19.6543 11.2149C19.7163 11.1833 19.785 11.1672 19.8545 11.1681H22.7301C23.0433 11.1681 23.2581 11.2149 23.2984 11.336C23.3695 11.5281 23.2855 12.1142 21.9729 13.8919L21.3868 14.6653C20.1968 16.2249 20.1968 16.3041 21.461 17.4876Z" fill="white"/>
</svg>
