<svg width="69.000000" height="69.000000" viewBox="0 0 69 69" fill="none" xmlns="http://www.w3.org/2000/svg" xmlns:xlink="http://www.w3.org/1999/xlink">
	<desc>
			Created with Pixso.
	</desc>
	<defs>
		<clipPath id="clip8307_113">
			<rect id="логотип новый 1" rx="10.000000" width="69.000000" height="69.000000" fill="white" fill-opacity="0"/>
		</clipPath>
	</defs>
	<rect id="логотип новый 1" rx="10.000000" width="69.000000" height="69.000000" fill="#404040" fill-opacity="1.000000"/>
	<g clip-path="url(#clip8307_113)">
		<path id="path6" d="M29.06 37.82C28.46 37.84 28.45 36.94 28.45 36.53C28.45 36.14 28.47 35.75 28.49 35.37L28.52 34.84C28.54 34.19 28.57 33.55 28.6 32.9C28.63 32.2 28.67 31.49 28.67 30.79C28.67 30.4 28.65 29.97 28.57 29.58C28.51 29.34 28.4 29.11 28.23 28.93C28.16 28.85 28.12 28.75 28.12 28.65C28.13 28.24 28.7 28.16 29 28.11C29.47 28.04 29.93 27.99 30.4 27.99L30.89 27.99L34.89 27.98C35.19 27.98 35.56 27.97 35.55 28.37C35.54 28.94 35.4 29.48 35.14 29.99C34.87 30.53 34.48 30.99 34.03 31.39L34.03 31.4L33.8 31.57L33.8 31.58C33.64 31.69 33.48 31.81 33.34 31.94C33.32 31.96 33.26 32.03 33.26 32.04C33.26 32.05 33.27 32.06 33.27 32.07C33.47 32.32 33.79 32.59 34.03 32.79C34.29 33.02 34.59 33.27 34.82 33.54C35.64 34.48 36.1 35.58 36.1 36.84C36.1 37.15 35.82 37.32 35.57 37.44C35.3 37.55 35.03 37.64 34.75 37.71C34.51 37.77 34.23 37.83 33.98 37.83L29.06 37.82ZM33.49 36.47C33.42 36.14 33.28 35.81 33.13 35.53C32.83 34.98 32.4 34.49 31.94 34.07L31.66 33.84C31.47 33.7 31.28 33.54 31.11 33.37C31.11 33.85 31.1 34.32 31.1 34.8C31.1 35.2 31.11 35.59 31.14 35.99C31.15 36.15 31.18 36.31 31.22 36.47L33.49 36.47ZM31.14 31.95C31.27 31.83 31.42 31.71 31.56 31.59C31.75 31.44 31.98 31.25 32.14 31.07C32.58 30.57 32.79 29.99 32.83 29.34L31.22 29.34C31.22 29.37 31.22 29.4 31.22 29.42C31.22 29.77 31.2 30.12 31.18 30.45C31.16 30.95 31.15 31.45 31.14 31.95ZM24.62 36.21C24.86 35.99 24.99 35.68 25.05 35.36C25.06 35.32 25.06 35.25 25.06 35.2C25.06 35.09 25.06 34.96 24.93 34.94L24.91 34.94C24.77 34.91 24.65 34.82 24.6 34.68C24.52 34.41 24.74 34.23 24.94 34.12C25.09 34.04 25.25 33.95 25.42 33.89C25.51 33.86 25.62 33.82 25.71 33.78C25.88 33.71 26.05 33.66 26.23 33.62C26.39 33.58 26.57 33.56 26.74 33.58C27.28 33.66 27.58 34.02 27.58 34.56C27.58 34.82 27.53 35.06 27.42 35.29C27.2 35.86 26.83 36.31 26.32 36.65C25.79 37.01 25.2 37.29 24.6 37.51C23.99 37.73 23.35 37.88 22.7 37.89C22.65 37.89 22.6 37.89 22.55 37.87C22.38 37.86 22.23 37.77 22.19 37.59C22.13 37.37 22.03 37.16 21.91 36.97C21.74 36.69 21.55 36.42 21.36 36.16C21.08 35.81 20.77 35.38 20.58 34.97C20.24 34.25 20.03 33.47 20.03 32.67C20.03 32.32 20.06 31.98 20.14 31.65C20.26 31.15 20.48 30.68 20.77 30.26C21.08 29.82 21.46 29.45 21.92 29.15C22.57 28.75 23.27 28.46 24 28.26C24.75 28.06 25.52 27.96 26.29 27.98C26.54 27.98 26.69 28.19 26.69 28.43L26.69 28.49C26.68 28.93 26.49 29.5 26.35 29.92C26.23 30.26 26.13 30.47 25.97 30.79C25.85 30.99 25.67 31.14 25.43 31.14C25.26 31.14 25.11 31.06 25.01 30.93C24.92 30.82 24.87 30.69 24.86 30.55C24.82 30.01 24.56 29.76 24.25 29.4C24.08 29.46 23.91 29.54 23.75 29.63C23.52 29.75 23.32 29.92 23.16 30.12C22.95 30.4 22.79 30.7 22.69 31.03C22.61 31.28 22.56 31.54 22.55 31.8C22.83 31.71 23.13 31.64 23.43 31.59C23.9 31.52 24.37 31.49 24.84 31.49C25.18 31.49 25.54 31.5 25.88 31.56C26.16 31.6 26.57 31.68 26.57 32.05C26.57 32.77 26.1 32.97 25.57 33.37C25.42 33.48 25.24 33.6 25.04 33.6C24.72 33.6 24.56 33.33 24.51 33.05C24.43 32.56 23.75 32.88 23.35 32.88C23.11 32.88 22.87 32.9 22.64 32.94C22.77 33.53 23.01 34.09 23.31 34.6L23.77 35.25C24.01 35.56 24.29 35.93 24.48 36.31C24.53 36.27 24.58 36.24 24.62 36.21ZM15.87 37.01C15.95 37.09 15.99 37.19 15.99 37.3C15.98 37.7 15.43 37.77 15.13 37.82C14.67 37.89 14.21 37.93 13.75 37.93L13.73 37.93L13.48 37.92C12.9 37.9 12.88 37.06 12.88 36.64C12.88 36.33 12.9 36.02 12.93 35.71L12.94 35.41C12.96 34.67 12.97 33.93 12.98 33.19C12.99 32.4 13 31.61 13 30.82C13 30.42 12.99 29.99 12.9 29.61C12.85 29.36 12.75 29.13 12.58 28.95C12.51 28.87 12.47 28.77 12.47 28.67C12.47 28.26 13.04 28.18 13.34 28.13C13.8 28.06 14.26 28.02 14.72 28.03L19.66 28.03C19.98 28.03 20.35 28.14 20.35 28.52C20.35 29.33 20.2 30.17 19.73 30.85C19.45 31.26 19.1 31.74 18.71 32.06C18.55 32.19 18.39 32.33 18.22 32.46L17.98 32.64C17.87 32.72 17.7 32.84 17.63 32.96C17.59 33.03 17.57 33.11 17.57 33.19C17.57 33.26 17.59 33.29 17.65 33.33C17.77 33.42 17.97 33.44 18.12 33.44L18.13 33.44L18.14 33.44C18.29 33.46 18.42 33.54 18.47 33.69C18.57 33.97 18.33 34.14 18.12 34.26C17.99 34.33 17.84 34.42 17.69 34.48C17.32 34.64 16.85 34.8 16.44 34.8C16.13 34.8 15.81 34.76 15.54 34.61L15.54 34.84C15.54 35.32 15.55 35.83 15.61 36.31C15.64 36.55 15.71 36.83 15.87 37.01ZM15.52 32.82C15.6 32.76 15.68 32.69 15.75 32.63L15.76 32.63C16.12 32.37 16.44 32.08 16.69 31.72C16.94 31.38 17.12 31.01 17.26 30.61C17.39 30.21 17.45 29.81 17.45 29.4C17.45 29.4 17.45 29.39 17.45 29.39L15.56 29.39C15.56 29.62 15.55 29.86 15.54 30.09L15.54 30.11C15.53 30.23 15.52 30.35 15.52 30.48L15.51 31.06C15.51 31.62 15.51 32.18 15.52 32.74L15.52 32.82ZM5.93 30.66C5.8 30.42 5.67 30.18 5.57 29.93C5.46 29.68 5.39 29.41 5.4 29.13C5.42 28.79 5.64 28.54 5.93 28.38C6.18 28.25 6.44 28.14 6.71 28.06C6.95 28 7.28 27.9 7.53 27.9C7.71 27.9 7.88 27.96 7.96 28.12C8.02 28.24 8 28.37 7.98 28.49C7.97 28.56 7.97 28.64 7.98 28.71L7.98 28.72L7.98 28.74C7.98 29.15 8.76 30.54 8.97 30.91C9.44 31.73 9.8 32.64 10.12 33.53C10.37 34.23 10.65 35 10.81 35.72C10.87 35.96 10.94 36.22 11.05 36.46L11.29 36.46C11.61 36.46 11.97 36.58 11.97 36.97L11.97 36.98C11.97 37.44 11.78 38.05 11.64 38.47C11.5 38.89 11.34 39.41 11.14 39.8C11.03 40.02 10.84 40.16 10.6 40.16C10.44 40.16 10.3 40.1 10.19 39.99C10.08 39.88 10.03 39.73 10.02 39.58L10.02 39.57C9.97 38.91 9.73 38.34 9.33 37.83L4.46 37.83C4.29 38.04 4.15 38.27 4.03 38.51C3.87 38.84 3.79 39.2 3.77 39.56C3.74 39.9 3.55 40.16 3.2 40.16C2.96 40.16 2.77 40.02 2.66 39.81C2.46 39.46 2.29 39.06 2.14 38.68C1.99 38.3 1.82 37.83 1.81 37.42L1.81 37.41C1.81 37.33 1.83 37.26 1.87 37.2C1.87 37.19 1.87 37.19 1.88 37.18L1.89 37.17C2 37.01 2.23 36.9 2.41 36.82C2.58 36.75 2.75 36.69 2.93 36.65C2.93 36.61 2.93 36.58 2.93 36.55C2.93 36.14 2.96 35.71 3.04 35.31C3.12 34.85 3.24 34.39 3.38 33.93C3.57 33.34 3.94 32.75 4.29 32.24C4.74 31.62 5.3 31.1 5.93 30.66ZM5.7 36.46L8.24 36.46C8.19 36.22 8.14 35.99 8.09 35.76C7.87 34.96 7.62 34.17 7.32 33.39C7.11 32.86 6.88 32.33 6.61 31.83C5.92 32.59 5.65 33.74 5.54 34.71C5.52 34.87 5.51 35.05 5.51 35.21C5.51 35.62 5.55 36.07 5.7 36.46Z" fill="#1B1918" fill-opacity="1.000000" fill-rule="evenodd"/>
		<path id="path8" d="M10.76 24.29L9.44 24.29L9.44 26.92L8.46 26.92L8.46 23.57L11.74 23.57L11.74 26.92L10.76 26.92L10.76 24.29ZM13.33 25.73L13.33 26.92L12.35 26.92L12.35 23.57L13.71 23.57C13.98 23.57 14.39 23.56 14.66 23.61C14.9 23.67 15.1 23.78 15.27 23.95C15.45 24.14 15.52 24.38 15.52 24.63C15.52 24.83 15.48 25.01 15.38 25.18C15.28 25.32 15.16 25.44 15.01 25.52C14.88 25.6 14.73 25.65 14.58 25.68C14.31 25.72 14.01 25.73 13.75 25.73L13.33 25.73ZM16.96 24.29L16.96 24.8L18.9 24.8L18.9 25.53L16.96 25.53L16.96 26.19L19.12 26.19L19.12 26.92L15.97 26.92L15.97 23.57L19.05 23.57L19.05 24.29L16.96 24.29ZM22.11 25.54L23.07 25.78L23.03 25.88C22.92 26.22 22.72 26.51 22.41 26.7C22.09 26.9 21.7 26.97 21.33 26.97C20.83 26.97 20.37 26.84 19.99 26.52C19.61 26.19 19.46 25.76 19.46 25.27C19.46 24.76 19.6 24.31 19.99 23.97C20.38 23.63 20.87 23.51 21.37 23.51C21.81 23.51 22.24 23.6 22.59 23.87C22.8 24.03 22.94 24.25 23.02 24.5L23.06 24.61L22.08 24.79L22.06 24.71C22.02 24.57 21.94 24.46 21.81 24.38C21.67 24.28 21.5 24.25 21.33 24.25C21.1 24.25 20.87 24.31 20.7 24.48C20.5 24.66 20.46 24.97 20.46 25.22C20.46 25.48 20.5 25.81 20.69 26C20.87 26.17 21.08 26.23 21.32 26.23C21.49 26.23 21.66 26.19 21.8 26.09C21.95 25.98 22.04 25.81 22.09 25.63L22.11 25.54ZM24.26 24.29L23.11 24.29L23.11 23.57L26.39 23.57L26.39 24.29L25.24 24.29L25.24 26.92L24.26 26.92L24.26 24.29ZM27.64 25.47L29.07 23.57L30 23.57L30 26.92L29.07 26.92L29.07 25.04L27.64 26.92L26.71 26.92L26.71 23.57L27.64 23.57L27.64 25.47ZM31.47 25.18C31.42 25.14 31.37 25.1 31.33 25.05C31.26 24.96 31.21 24.86 31.16 24.75C31.11 24.63 31.04 24.47 30.97 24.36C30.94 24.31 30.89 24.27 30.83 24.25C30.75 24.21 30.6 24.21 30.5 24.21C30.47 24.21 30.44 24.21 30.41 24.21L30.31 24.21L30.31 23.54L30.41 23.54C30.44 23.54 30.48 23.55 30.52 23.55C30.78 23.55 31.15 23.56 31.38 23.69C31.61 23.82 31.78 24.13 31.89 24.36C31.94 24.49 32.06 24.73 32.15 24.82C32.18 24.86 32.23 24.88 32.28 24.89L32.28 23.57L33.24 23.57L33.24 24.89C33.29 24.88 33.33 24.86 33.37 24.82C33.46 24.73 33.57 24.49 33.63 24.36C33.74 24.13 33.91 23.82 34.15 23.69C34.38 23.56 34.74 23.55 35 23.55C35.03 23.55 35.07 23.54 35.11 23.54L35.21 23.54L35.21 24.21L35 24.21C34.91 24.21 34.77 24.21 34.69 24.25C34.63 24.27 34.58 24.31 34.55 24.36C34.47 24.47 34.4 24.64 34.35 24.75C34.31 24.86 34.25 24.96 34.18 25.05C34.15 25.1 34.1 25.14 34.05 25.18C34.15 25.22 34.24 25.29 34.32 25.37C34.46 25.53 34.59 25.72 34.7 25.91L35.32 26.92L34.17 26.92L33.67 26.05L33.67 26.05C33.66 26.03 33.65 26.01 33.64 26L33.63 25.99C33.6 25.95 33.57 25.89 33.54 25.84C33.49 25.77 33.39 25.63 33.32 25.58C33.3 25.57 33.27 25.56 33.24 25.55L33.24 26.92L32.28 26.92L32.28 25.55C32.25 25.56 32.22 25.57 32.19 25.58C32.12 25.63 32.03 25.77 31.98 25.84C31.95 25.89 31.91 25.95 31.88 26C31.86 26.02 31.85 26.04 31.84 26.05L31.34 26.92L30.19 26.92L30.81 25.91C30.92 25.72 31.05 25.54 31.19 25.38C31.27 25.29 31.37 25.23 31.47 25.18ZM13.33 24.29L13.33 25L13.66 25C13.82 25 14.11 25 14.25 24.95C14.33 24.93 14.4 24.89 14.45 24.83C14.5 24.77 14.52 24.71 14.52 24.64C14.52 24.56 14.49 24.49 14.43 24.43C14.35 24.36 14.26 24.33 14.16 24.31C14 24.29 13.78 24.29 13.61 24.29L13.33 24.29Z" fill="#1B1918" fill-opacity="1.000000" fill-rule="evenodd"/>
		<path id="path10" d="M14.64 18.65C15.95 15.89 16.26 14.87 19.67 12.55C26.71 7.75 34.14 8.12 42.45 8.5C48.29 8.76 53.47 11.72 56.55 16.33C58.4 19.1 57.46 19.65 60.21 23.63C65.83 31.76 62.35 32.46 62.46 36.01C62.52 37.77 63.24 39.09 62.96 40.88C62.59 43.27 60.09 46.79 58.79 47.65C56.55 49.12 53.15 49.69 50.07 49.76C44.88 49.88 44.88 50.35 42.52 53.3C40.37 55.98 40.34 56.83 36.53 58.25C33.64 59.33 30.72 60.18 27.24 60C23.31 59.8 21.97 58.38 19.5 56.74C17.19 55.21 14.27 54.35 12.61 52.66C10.27 50.27 7.87 44.58 8.39 42.19C7.19 42.19 5.99 42.19 4.79 42.19C5.33 48.98 12.78 55.17 13.21 56.45L14.2 57.33C14.59 57.73 14.82 57.93 15.25 58.3C19.38 61.91 20.06 60.39 24.45 61.43C26.77 61.98 27.93 63.37 30.8 63.01C32.3 62.83 38.93 59.6 40.44 58.59C42.39 57.29 41.63 56.62 44.95 54.17C47.76 52.09 46.44 52.06 52.09 52.97C57.01 53.76 61.53 51.26 63.49 46.53C63.81 45.74 64.97 42.77 65.23 42.41C65.41 40.28 65.02 38.74 65.03 36.68C65.11 34.44 65.86 33.87 66.16 31.97C66.64 28.96 63.9 21.66 61.84 19.76C60.68 18.7 60.7 17.58 59.76 16.25C58.96 15.11 58.16 14.29 57.34 13.13C55.92 10.69 55.28 8.86 53.06 7.52C51.54 6.59 47.31 5.78 45.38 5.76C43.61 5.47 41.38 5.54 39.55 5.48C34.2 5.32 35.81 6.04 34.21 6C31 5.91 31.17 3.52 24.79 6.27C23.42 6.85 21.82 7.29 20.43 7.95C17.81 9.18 18.83 9.55 17.4 10.95C16.21 12.11 15.83 12.87 14.69 14.29C12.84 16.6 13.21 15.2 11.32 18.6L14.64 18.65Z" fill="#FFFFFF" fill-opacity="1.000000" fill-rule="evenodd"/>
		<path id="path12" d="M21.83 15.52C19.64 18.28 20.62 19.12 21.15 18.92C21.59 18.75 23.35 16.44 23.93 15.88C24.43 15.39 25.01 14.94 25.83 14.47C26.91 13.83 28.34 13.31 30.57 13.26C32.75 13.22 34.83 13.37 37.06 13.27C48.04 12.75 51.73 12.95 55.16 23.73C55.83 25.85 57.3 27.6 58.21 29.8C58.52 31.47 58.84 32.37 58.42 34.1C57.9 36.21 57.58 35.99 58.1 38.42C58.46 40.08 58.18 41.33 57.37 42.46C54.55 46.38 51.45 47.08 46.44 47.1C44.44 47.11 43.76 47.37 42.9 48.56C40.35 52.07 40.64 54.01 34.43 55.54C27.68 57.21 26.1 54.96 22.79 52.96C21.57 52.22 20.65 51.83 19.55 51.06C14.61 47.57 16.2 43.2 14.75 42.36C14.2 42.04 14.23 42.44 14.17 42.81L14.47 44.27C15.17 50.46 20.63 53.02 23.7 54.95C27.72 57.47 33.79 58.01 38.52 55.8C40.92 54.68 41.39 52.9 42.84 50.75C44.6 48.13 45.41 48.28 49.36 48.21C54.58 48.12 56.38 46.34 58.93 43.57C61.44 40.84 59.14 39 59.32 36.23C59.43 34.53 60.25 34.16 60.28 32.44C60.35 28.86 56.91 25.15 56.07 22.79C54.87 19.43 53.72 16.6 50.94 14.08C45.2 8.88 41.93 11.76 36.76 12.25C30.9 12.8 26.22 10 21.83 15.52Z" fill="#FFFFFF" fill-opacity="1.000000" fill-rule="evenodd"/>
		<path id="path14" d="M26.74 18.54C27.81 17.99 28.5 17.02 31.8 16.95C33.5 16.91 35.12 17.03 36.86 16.95C45.42 16.55 48.56 16.29 51.23 24.69C51.75 26.34 52.64 28.12 53.35 29.84C53.6 31.14 53.84 31.84 53.51 33.19C53.11 34.83 52.86 34.66 53.27 36.56C53.55 37.85 53.33 38.83 52.7 39.71C50.5 42.76 48.08 43.31 44.17 43.32C42.62 43.33 42.09 43.53 41.41 44.46C39.43 47.2 39.66 48.71 34.82 49.9C29.55 51.2 28.32 49.46 25.74 47.89C24.79 47.32 24.07 47.01 23.21 46.41C21.65 45.3 20.92 44.08 20.54 42.98C20.12 41.77 19.26 41.77 19.65 42.88C20.89 46.46 24.37 48.14 26.45 49.45C29.58 51.41 34.32 51.83 38 50.11C39.88 49.23 40.24 47.84 41.37 46.17C42.75 44.13 43.37 44.24 46.45 44.19C50.52 44.12 51.93 42.73 53.91 40.58C55.87 38.45 54.08 37.01 54.22 34.85C54.3 33.53 54.94 33.24 54.97 31.89C55.02 29.11 52.34 26.21 51.68 24.37C50.75 21.76 49.85 19.55 47.69 17.58C43.21 13.53 40.66 15.77 36.63 16.15C33.27 16.47 29.71 15.15 26.83 16.97C26.07 17.45 25.89 17.68 25.55 18.09C24.5 19.32 26.02 18.91 26.74 18.54Z" fill="#FFFFFF" fill-opacity="1.000000" fill-rule="evenodd"/>
		<path id="path16" d="M28.29 37.33C27.68 37.35 27.67 36.45 27.67 36.04C27.67 35.66 27.7 35.26 27.72 34.88L27.75 34.35C27.77 33.71 27.8 33.06 27.83 32.42C27.86 31.72 27.89 31.01 27.89 30.31C27.89 29.92 27.88 29.48 27.79 29.1C27.73 28.85 27.63 28.63 27.45 28.44C27.38 28.37 27.34 28.27 27.34 28.16C27.35 27.75 27.92 27.68 28.23 27.63C28.69 27.55 29.16 27.51 29.63 27.51L30.12 27.51L34.12 27.5C34.42 27.5 34.79 27.49 34.78 27.88C34.77 28.45 34.62 29 34.36 29.51C34.09 30.04 33.71 30.51 33.26 30.91L33.25 30.92L33.03 31.09L33.02 31.09C32.86 31.2 32.7 31.32 32.57 31.46C32.55 31.48 32.49 31.54 32.48 31.56C32.49 31.56 32.49 31.57 32.5 31.58C32.7 31.84 33.01 32.1 33.25 32.31C33.52 32.54 33.81 32.79 34.04 33.05C34.87 34 35.33 35.1 35.33 36.35C35.33 36.66 35.04 36.84 34.79 36.95C34.53 37.07 34.25 37.16 33.97 37.23C33.73 37.29 33.46 37.35 33.21 37.35L28.29 37.33ZM32.72 35.98C32.65 35.66 32.5 35.33 32.35 35.05C32.05 34.49 31.63 34.01 31.16 33.58L30.88 33.36C30.69 33.21 30.5 33.05 30.34 32.88C30.33 33.36 30.33 33.84 30.33 34.32C30.33 34.71 30.33 35.11 30.36 35.5C30.38 35.66 30.4 35.83 30.45 35.98L32.72 35.98ZM30.36 31.47C30.5 31.34 30.64 31.23 30.79 31.1C30.97 30.95 31.21 30.76 31.37 30.58C31.81 30.09 32.02 29.5 32.06 28.86L30.45 28.86C30.45 28.88 30.45 28.91 30.45 28.94C30.45 29.28 30.43 29.63 30.4 29.97C30.38 30.47 30.37 30.97 30.36 31.47ZM23.84 35.72C24.09 35.5 24.21 35.19 24.27 34.88C24.28 34.83 24.28 34.76 24.28 34.72C24.28 34.6 24.29 34.47 24.15 34.45L24.14 34.45C24 34.43 23.87 34.34 23.83 34.2C23.74 33.92 23.97 33.75 24.17 33.64C24.31 33.55 24.48 33.46 24.64 33.41C24.74 33.38 24.84 33.33 24.94 33.3C25.1 33.23 25.28 33.17 25.45 33.13C25.62 33.09 25.79 33.07 25.96 33.1C26.5 33.18 26.8 33.54 26.8 34.08C26.8 34.33 26.75 34.58 26.64 34.81C26.43 35.38 26.05 35.83 25.54 36.17C25.01 36.53 24.42 36.81 23.82 37.03C23.21 37.25 22.57 37.4 21.92 37.4C21.87 37.4 21.83 37.4 21.78 37.39C21.61 37.37 21.45 37.29 21.42 37.1C21.35 36.89 21.26 36.68 21.14 36.48C20.97 36.21 20.78 35.94 20.58 35.68C20.31 35.32 19.99 34.9 19.8 34.49C19.46 33.76 19.25 32.99 19.25 32.18C19.25 31.84 19.29 31.5 19.37 31.16C19.49 30.66 19.7 30.2 19.99 29.78C20.3 29.33 20.69 28.96 21.15 28.67C21.79 28.27 22.5 27.98 23.23 27.78C23.98 27.57 24.75 27.47 25.51 27.5C25.77 27.5 25.92 27.7 25.92 27.94L25.92 28C25.9 28.45 25.72 29.01 25.57 29.43C25.45 29.78 25.36 29.99 25.19 30.3C25.08 30.51 24.89 30.65 24.65 30.65C24.48 30.65 24.34 30.58 24.23 30.45C24.14 30.34 24.1 30.2 24.09 30.06C24.04 29.53 23.78 29.27 23.47 28.92C23.3 28.98 23.13 29.05 22.97 29.14C22.74 29.27 22.55 29.44 22.38 29.64C22.17 29.91 22.02 30.21 21.92 30.54C21.84 30.79 21.79 31.05 21.77 31.32C22.06 31.22 22.36 31.16 22.65 31.11C23.12 31.04 23.59 31 24.06 31C24.41 31 24.76 31.02 25.1 31.07C25.38 31.11 25.8 31.2 25.8 31.56C25.8 32.29 25.33 32.48 24.79 32.88C24.64 32.99 24.46 33.11 24.27 33.11C23.95 33.11 23.78 32.85 23.74 32.56C23.66 32.07 22.97 32.4 22.57 32.4C22.33 32.4 22.1 32.42 21.86 32.46C21.99 33.04 22.24 33.6 22.53 34.12L22.99 34.76C23.24 35.07 23.51 35.44 23.71 35.82C23.76 35.79 23.8 35.75 23.84 35.72ZM15.1 36.53C15.17 36.6 15.22 36.7 15.21 36.81C15.21 37.22 14.66 37.29 14.36 37.34C13.9 37.41 13.43 37.45 12.97 37.45L12.95 37.45L12.7 37.44C12.12 37.41 12.11 36.57 12.11 36.16C12.11 35.85 12.12 35.54 12.15 35.23L12.17 34.93C12.18 34.19 12.19 33.45 12.2 32.71C12.22 31.92 12.23 31.12 12.23 30.33C12.23 29.94 12.21 29.51 12.12 29.12C12.07 28.88 11.97 28.65 11.8 28.46C11.73 28.39 11.69 28.29 11.69 28.19C11.7 27.78 12.26 27.7 12.57 27.65C13.02 27.57 13.49 27.53 13.95 27.54L18.89 27.54C19.2 27.54 19.57 27.65 19.57 28.03C19.57 28.85 19.42 29.68 18.96 30.37C18.68 30.78 18.32 31.26 17.94 31.58C17.78 31.71 17.62 31.85 17.45 31.98L17.21 32.15C17.1 32.23 16.93 32.36 16.86 32.47C16.81 32.55 16.79 32.62 16.79 32.71C16.79 32.77 16.82 32.81 16.87 32.85C16.99 32.93 17.2 32.95 17.34 32.96L17.35 32.96L17.36 32.96C17.51 32.97 17.65 33.06 17.7 33.2C17.8 33.49 17.55 33.66 17.34 33.77C17.21 33.85 17.07 33.93 16.92 34C16.54 34.15 16.07 34.32 15.66 34.32C15.36 34.32 15.03 34.27 14.76 34.12L14.76 34.35C14.76 34.84 14.77 35.35 14.83 35.83C14.86 36.07 14.93 36.34 15.1 36.53ZM14.75 32.34C14.82 32.27 14.9 32.21 14.98 32.15L14.99 32.14C15.34 31.89 15.66 31.59 15.92 31.24C16.16 30.9 16.35 30.52 16.48 30.12C16.61 29.73 16.68 29.33 16.68 28.91C16.68 28.91 16.68 28.91 16.68 28.9L14.78 28.9C14.78 29.14 14.77 29.37 14.76 29.6L14.76 29.62C14.75 29.74 14.75 29.87 14.75 30L14.73 30.57C14.73 31.13 14.74 31.69 14.75 32.26L14.75 32.34ZM5.15 30.18C5.02 29.94 4.9 29.69 4.79 29.45C4.68 29.2 4.61 28.92 4.62 28.64C4.64 28.3 4.87 28.06 5.16 27.9C5.4 27.76 5.67 27.66 5.94 27.58C6.18 27.51 6.51 27.42 6.76 27.42C6.93 27.42 7.1 27.47 7.18 27.64C7.24 27.75 7.23 27.88 7.21 28.01C7.2 28.08 7.2 28.15 7.2 28.22L7.21 28.24L7.21 28.25C7.21 28.67 7.99 30.05 8.2 30.42C8.66 31.25 9.03 32.16 9.34 33.05C9.59 33.74 9.87 34.52 10.04 35.24C10.09 35.48 10.17 35.74 10.27 35.97L10.51 35.97C10.84 35.97 11.2 36.1 11.2 36.49L11.2 36.5C11.2 36.95 11.01 37.56 10.86 37.99C10.72 38.41 10.56 38.93 10.36 39.32C10.25 39.53 10.07 39.68 9.82 39.68C9.67 39.68 9.52 39.61 9.42 39.5C9.31 39.39 9.26 39.25 9.24 39.09L9.24 39.08C9.2 38.42 8.96 37.85 8.55 37.35L3.69 37.35C3.52 37.55 3.37 37.78 3.26 38.02C3.09 38.35 3.01 38.71 2.99 39.08C2.97 39.41 2.78 39.68 2.42 39.68C2.18 39.68 2 39.53 1.89 39.33C1.69 38.97 1.52 38.57 1.37 38.19C1.21 37.82 1.05 37.34 1.03 36.93L1.03 36.92C1.03 36.85 1.05 36.78 1.09 36.71C1.1 36.71 1.1 36.7 1.1 36.7L1.11 36.69C1.23 36.52 1.46 36.41 1.64 36.34C1.81 36.27 1.98 36.21 2.15 36.16C2.15 36.13 2.15 36.1 2.15 36.07C2.15 35.65 2.18 35.23 2.26 34.83C2.35 34.36 2.46 33.9 2.61 33.45C2.8 32.86 3.16 32.26 3.52 31.76C3.96 31.14 4.53 30.62 5.15 30.18ZM4.93 35.97L7.46 35.97C7.42 35.74 7.37 35.5 7.31 35.27C7.1 34.47 6.84 33.68 6.54 32.91C6.34 32.38 6.11 31.85 5.83 31.35C5.15 32.11 4.88 33.25 4.76 34.22C4.75 34.39 4.74 34.56 4.74 34.73C4.74 35.14 4.78 35.58 4.93 35.97Z" fill="#FFFFFF" fill-opacity="1.000000" fill-rule="evenodd"/>
		<path id="path18" d="M9.99 23.81L8.66 23.81L8.66 26.43L7.68 26.43L7.68 23.08L10.97 23.08L10.97 26.43L9.99 26.43L9.99 23.81ZM12.56 25.24L12.56 26.43L11.58 26.43L11.58 23.08L12.93 23.08C13.21 23.08 13.62 23.07 13.88 23.13C14.12 23.18 14.33 23.29 14.49 23.47C14.67 23.66 14.75 23.89 14.75 24.15C14.75 24.34 14.71 24.53 14.6 24.69C14.51 24.83 14.39 24.95 14.24 25.03C14.1 25.11 13.95 25.17 13.8 25.2C13.54 25.24 13.24 25.24 12.97 25.24L12.56 25.24ZM16.18 23.81L16.18 24.32L18.12 24.32L18.12 25.04L16.18 25.04L16.18 25.71L18.35 25.71L18.35 26.43L15.2 26.43L15.2 23.08L18.27 23.08L18.27 23.81L16.18 23.81ZM21.34 25.05L22.29 25.29L22.26 25.39C22.14 25.74 21.94 26.03 21.63 26.22C21.31 26.42 20.93 26.49 20.55 26.49C20.06 26.49 19.59 26.36 19.21 26.03C18.84 25.71 18.68 25.27 18.68 24.78C18.68 24.28 18.83 23.82 19.21 23.48C19.6 23.15 20.09 23.02 20.6 23.02C21.03 23.02 21.46 23.12 21.82 23.39C22.02 23.55 22.16 23.77 22.25 24.01L22.28 24.12L21.31 24.31L21.28 24.22C21.24 24.08 21.16 23.97 21.04 23.89C20.89 23.8 20.73 23.76 20.56 23.76C20.32 23.76 20.1 23.83 19.92 23.99C19.73 24.17 19.68 24.48 19.68 24.74C19.68 24.99 19.72 25.33 19.92 25.52C20.09 25.68 20.31 25.75 20.54 25.75C20.72 25.75 20.88 25.7 21.02 25.6C21.18 25.49 21.26 25.32 21.31 25.15L21.34 25.05ZM23.48 23.81L22.33 23.81L22.33 23.08L25.61 23.08L25.61 23.81L24.46 23.81L24.46 26.43L23.48 26.43L23.48 23.81ZM26.86 24.99L28.29 23.08L29.22 23.08L29.22 26.43L28.29 26.43L28.29 24.55L26.86 26.43L25.94 26.43L25.94 23.08L26.86 23.08L26.86 24.99ZM30.7 24.69C30.64 24.65 30.6 24.61 30.56 24.56C30.49 24.47 30.43 24.37 30.39 24.27C30.34 24.15 30.27 23.99 30.2 23.88C30.16 23.83 30.12 23.79 30.06 23.76C29.97 23.73 29.82 23.72 29.73 23.72C29.7 23.72 29.66 23.72 29.63 23.72L29.53 23.73L29.53 23.06L29.63 23.06C29.67 23.06 29.7 23.06 29.74 23.06C30 23.06 30.37 23.08 30.6 23.21C30.83 23.34 31 23.65 31.11 23.88C31.17 24 31.28 24.24 31.37 24.34C31.41 24.38 31.45 24.4 31.5 24.41L31.5 23.08L32.46 23.08L32.46 24.41C32.51 24.4 32.56 24.37 32.59 24.34C32.68 24.24 32.8 24 32.85 23.88C32.96 23.65 33.14 23.34 33.37 23.21C33.6 23.08 33.96 23.06 34.22 23.06C34.26 23.06 34.3 23.06 34.33 23.06L34.43 23.06L34.43 23.73L34.22 23.72C34.13 23.72 33.99 23.73 33.91 23.76C33.85 23.79 33.81 23.83 33.77 23.88C33.7 23.98 33.63 24.15 33.58 24.27C33.53 24.37 33.48 24.47 33.41 24.56C33.37 24.61 33.32 24.65 33.27 24.69C33.37 24.74 33.46 24.81 33.54 24.89C33.69 25.05 33.81 25.24 33.93 25.42L34.55 26.43L33.4 26.43L32.9 25.57L32.89 25.56C32.89 25.55 32.87 25.53 32.86 25.51L32.86 25.51C32.82 25.46 32.79 25.41 32.76 25.36C32.71 25.29 32.62 25.15 32.55 25.1C32.52 25.08 32.49 25.07 32.46 25.06L32.46 26.43L31.5 26.43L31.5 25.06C31.47 25.07 31.44 25.08 31.42 25.1C31.34 25.14 31.25 25.29 31.2 25.36C31.17 25.41 31.14 25.47 31.1 25.51C31.09 25.53 31.08 25.55 31.06 25.57L30.57 26.43L29.42 26.43L30.04 25.42C30.15 25.24 30.27 25.05 30.42 24.9C30.5 24.81 30.59 24.74 30.7 24.69ZM12.56 23.81L12.56 24.51L12.89 24.51C13.04 24.51 13.33 24.52 13.48 24.47C13.55 24.44 13.62 24.41 13.68 24.34C13.72 24.29 13.74 24.23 13.74 24.16C13.74 24.07 13.71 24 13.65 23.95C13.58 23.88 13.49 23.84 13.39 23.83C13.22 23.8 13.01 23.81 12.84 23.81L12.56 23.81Z" fill="#FFFFFF" fill-opacity="1.000000" fill-rule="evenodd"/>
	</g>
</svg>
