<svg width="19" height="19" viewBox="0 0 19 19" fill="none" xmlns="http://www.w3.org/2000/svg">
<path d="M18.9145 15.1422L18.8199 14.8573C18.596 14.1915 17.8618 13.4972 17.1874 13.3143L14.6912 12.6323C14.0142 12.4482 13.0486 12.6958 12.5533 13.1911L11.6499 14.0945C8.36671 13.2073 5.79216 10.6327 4.90618 7.35008L5.80964 6.44662C6.30491 5.95135 6.55251 4.98701 6.36834 4.31008L5.68768 1.81266C5.50351 1.13696 4.80791 0.402815 4.14344 0.1813L3.8585 0.0854953C3.19276 -0.136019 2.24331 0.0880038 1.74808 0.583236L0.396693 1.93586C0.155269 2.17601 0.000969679 2.86289 0.000969679 2.8654C-0.0462958 7.15593 1.63607 11.2896 4.67101 14.3246C7.69851 17.3521 11.8167 19.032 16.0948 18.9959C16.1172 18.9959 16.824 18.8441 17.0654 18.6039L18.4168 17.2525C18.912 16.7573 19.136 15.8079 18.9145 15.1422Z" fill="white"/>
</svg>
